<?xml version="1.0" encoding="UTF-8" standalone="no"?>
<svg
   version="1.0"
   width="1397.1552pt"
   height="438.00879pt"
   viewBox="0 0 1397.1552 438.00879"
   preserveAspectRatio="xMidYMid"
   id="svg1"
   sodipodi:docname="parrot.svg"
   inkscape:version="1.3.2 (091e20ef0f, 2023-11-25)"
   xmlns:inkscape="http://www.inkscape.org/namespaces/inkscape"
   xmlns:sodipodi="http://sodipodi.sourceforge.net/DTD/sodipodi-0.dtd"
   xmlns="http://www.w3.org/2000/svg"
   xmlns:svg="http://www.w3.org/2000/svg">
  <defs
     id="defs1" />
  <sodipodi:namedview
     id="namedview1"
     pagecolor="#ffffff"
     bordercolor="#000000"
     borderopacity="0.25"
     inkscape:showpageshadow="2"
     inkscape:pageopacity="0.0"
     inkscape:pagecheckerboard="0"
     inkscape:deskcolor="#d1d1d1"
     inkscape:document-units="pt"
     inkscape:zoom="5.0319335"
     inkscape:cx="1232.8263"
     inkscape:cy="513.71903"
     inkscape:window-width="1920"
     inkscape:window-height="1048"
     inkscape:window-x="0"
     inkscape:window-y="32"
     inkscape:window-maximized="1"
     inkscape:current-layer="g1" />
  <metadata
     id="metadata1">
Created by potrace 1.15, written by Peter Selinger 2001-2017
</metadata>
  <g
     transform="matrix(0.1,0,0,-0.1,6.6573426,851.87991)"
     fill="#000000"
     stroke="none"
     id="g1">
    <path
       d="M 542.72189,4617.71 C 858.98342,4348.7794 1245.342,4197.1877 1705.3,4162.0783 c 220.8549,-15.7516 533.9985,8.4565 791.0286,61.2348 129.958,27.0356 145.5603,27.7883 292.6423,8.0931 575.7914,-74.0017 1665.5877,-110.3879 2483.4346,-84.264 587.554,19.6286 1115.822,42.431 1115.822,42.431 537.0526,-13.0447 1581.1853,48.856 2881.7516,89.1179 930.5379,53.7017 3588.9119,-174.0342 4085.5609,-113.9322 290.461,97.7846 548.773,235.5026 488.267,329.7842 -45.095,70.2678 -344.349,131.4588 -508.657,156.2826 -1772.281,267.7581 -2312.93,591.2565 -3124.582,832.2926 -321.5279,111.7639 -715.2563,282.6664 -834.6634,270.753 -120.0837,-11.177 -366.9953,137.2818 -645.279,200.0988 -371.7959,137.0281 -678.5237,327.0879 -920.5403,311.1822 -284.0954,125.8633 -914.0792,515.1878 -1241.1381,646.5668 l -100.9076,40.3816 -22.2355,59.6873 c -24.2649,61.8968 -163.0087,344.5188 -178.5673,361.4578 -4.7352,5.1554 -6.5845,11.6036 -4.375,13.633 2.2094,2.0294 97.6128,-1.3156 212.7373,-6.9139 171.6422,-7.9991 215.6233,-5.6209 247.4283,10.0139 56.4251,28.7438 83.9587,77.1163 90.1458,156.1208 4.6103,58.547 -16.4134,196.7425 -32.6484,214.418 -3.3823,3.6824 -46.6708,-15.711 -95.9712,-43.342 -187.8074,-105.9688 -348.5499,-124.6192 -514.2288,-59.5461 -112.091,43.6875 -185.0561,92.0827 -255.3478,170.0897 -166.3488,182.5871 -178.8884,437.2001 -31.5209,624.1541 25.4004,31.4773 43.6162,60.4287 40.2339,64.1111 -8.1175,8.8378 -127.5847,-4.4886 -184.2061,-21.1924 -170.4806,-47.9621 -291.4873,-180.8319 -297.6695,-326.3646 -5.462,-128.5775 45.6974,-240.4511 181.2455,-398.3743 l 91.0218,-106.4896 58.7416,-199.956 c 33.5277,-110.4169 57.9451,-202.0455 54.9991,-204.7513 -2.2094,-2.0294 -30.2281,4.8228 -60.8926,16.0339 -509.2405,174.5053 -1269.7993,297.4052 -1830.4036,295.7409 -524.5444,-2.4884 -829.4181,-65.266 -1123.8075,-231.112 -179.0897,-100.6771 -239.8574,-148.3456 -609.8869,-478.7138 -307.4287,-272.8692 -361.7482,-318.6883 -407.2462,-340.1111 -75.0934,-35.0283 -80.6851,-33.3752 -112.8113,26.7323 -94.8453,183.0884 -261.6905,370.6508 -378.8931,427.2949 -11.0634,6.132 -8.9302,23.0272 12.2152,70.9633 22.7984,53.5279 37.0917,73.4453 90.8548,122.8268 39.0934,37.2652 61.428,63.2108 57.3692,67.6296 -22.9996,25.0404 -210.3365,63.4315 -332.5858,67.9169 -218.32911,8.5669 -352.13333,-42.3687 -498.55669,-190.4369 -89.47427,-90.3292 -156.0852,-192.2457 -217.80844,-329.0494 l -40.69786,-91.6934 -63.92618,-22.0555 C 253.94397,6649.8801 237.18499,6638.5603 162.06398,6569.5616 61.902629,6477.5632 27.680616,6421.6896 -16.590959,6279.1904 -132.75538,5910.436 -42.757216,5413.3149 215.10334,5002.4853 283.39809,4894.1303 453.26549,4694.4078 542.72189,4617.71 Z"
       id="path1"
       sodipodi:nodetypes="ccccccccsscccccccsscccsccccscscccscccccccccccccccsccc" />
    <g
       id="g2"
       transform="rotate(15.539173,9304.4702,7254.1321)"
       style="fill:#333333">
      <g
         id="g3" />
    </g>
  </g>
</svg>
